<svg width="123" height="92" viewBox="0 0 123 92" fill="none" xmlns="http://www.w3.org/2000/svg">
<g clip-path="url(#clip0_111_2)">
<path fill-rule="evenodd" clip-rule="evenodd" d="M27.5201 36.17C33.2187 36.1613 38.7798 37.9206 43.4365 41.2054C48.0933 44.4902 51.6164 49.1387 53.5201 54.51C55.8029 53.0819 58.4194 52.2752 61.1101 52.17C64.0611 52.0743 66.9814 52.794 69.5501 54.25C70.9966 50.2924 73.3324 46.7197 76.3773 43.8071C79.4223 40.8945 83.0952 38.7197 87.1131 37.4503C91.131 36.1809 95.3867 35.8507 99.5523 36.4852C103.718 37.1197 107.682 38.7019 111.14 41.11L105.67 18.46C105.47 17.62 105.35 17.05 105.25 16.57C104.96 15.21 104.9 14.92 103.36 13.34L95.8901 5.67999C95.2694 5.04347 94.9271 4.18649 94.9384 3.29757C94.9496 2.40864 95.3135 1.5606 95.9501 0.939992C96.5866 0.319386 97.4436 -0.0229462 98.3325 -0.011694C99.2214 -0.000441843 100.069 0.363473 100.69 0.999992L108.12 8.65999C111.01 11.66 111.12 12.26 111.76 15.17C111.86 15.68 111.99 16.28 112.13 16.86L120.71 52.39C120.77 52.6423 120.8 52.9007 120.8 53.16C122.333 56.9176 123.017 60.9677 122.801 65.0203C122.585 69.073 121.476 73.0277 119.552 76.6013C117.629 80.1748 114.939 83.2787 111.675 85.6905C108.411 88.1024 104.654 89.7625 100.673 90.5519C96.692 91.3413 92.5858 91.2405 88.6485 90.2566C84.7112 89.2728 81.0402 87.4304 77.8986 84.8613C74.7569 82.2922 72.2224 79.06 70.4765 75.3964C68.7306 71.7327 67.8166 67.7283 67.8001 63.67C67.8169 62.7437 67.8837 61.8191 68.0001 60.9C66.1525 59.2937 63.7883 58.4062 61.3401 58.4C58.9145 58.5925 56.6506 59.6922 55.0001 61.48C55.0001 62.21 55.0801 62.95 55.0801 63.69C55.0635 67.7483 54.1495 71.7527 52.4036 75.4164C50.6577 79.08 48.1232 82.3122 44.9815 84.8813C41.8399 87.4504 38.1689 89.2928 34.2316 90.2766C30.2943 91.2605 26.1881 91.3613 22.2073 90.5719C18.2264 89.7825 14.4694 88.1224 11.2055 85.7105C7.94153 83.2987 5.25142 80.1948 3.32786 76.6213C1.4043 73.0477 0.294918 69.093 0.0791925 65.0404C-0.136533 60.9877 0.546739 56.9376 2.08006 53.18C2.07884 52.92 2.11248 52.661 2.18006 52.41L10.7501 16.88C10.8901 16.3 11.0201 15.7 11.1201 15.2C11.7401 12.28 11.8701 11.65 14.7601 8.67999L22.2001 0.999992C22.5073 0.68482 22.8737 0.433259 23.2782 0.259674C23.6827 0.0860883 24.1175 -0.00612251 24.5576 -0.011694C24.9978 -0.0172655 25.4347 0.0639114 25.8435 0.227202C26.2523 0.390493 26.6249 0.632699 26.9401 0.939992C27.2552 1.24729 27.5068 1.61365 27.6804 2.01816C27.854 2.42267 27.9462 2.85742 27.9517 3.29757C27.9573 3.73772 27.8761 4.17465 27.7128 4.58343C27.5496 4.99221 27.3073 5.36482 27.0001 5.67999L19.5601 13.35C18.0001 14.93 18.0001 15.21 17.6801 16.56C17.5801 17.04 17.4601 17.61 17.2601 18.46L11.7901 41.11C16.3998 37.8833 21.8932 36.1581 27.5201 36.17ZM95.3601 42.49C99.2465 42.4902 103.058 43.5582 106.379 45.5774C109.7 47.5967 112.402 50.4895 114.19 53.94V54C114.302 54.4633 114.514 54.8967 114.81 55.27C116.622 59.4574 117.035 64.1176 115.987 68.5584C114.94 72.9991 112.487 76.9833 108.994 79.919C105.501 82.8547 101.155 84.5852 96.5999 84.8533C92.0451 85.1215 87.5254 83.9131 83.7122 81.4075C79.899 78.902 76.9959 75.2331 75.4343 70.9461C73.8726 66.659 73.7358 61.9824 75.044 57.6113C76.3523 53.2403 79.0358 49.4079 82.6959 46.6836C86.356 43.9594 90.7974 42.4887 95.3601 42.49ZM8.68006 54C8.57258 54.4649 8.36054 54.8993 8.06006 55.27C5.83317 60.3811 5.70308 66.1624 7.69782 71.3685C9.69257 76.5746 13.6525 80.7888 18.7245 83.1033C23.7966 85.4178 29.5748 85.6473 34.8145 83.7424C40.0541 81.8375 44.3358 77.9507 46.7372 72.9192C49.1386 67.8877 49.4675 62.1143 47.653 56.8427C45.8385 51.571 42.0259 47.2231 37.0365 44.7355C32.047 42.2479 26.2801 41.8198 20.978 43.5433C15.676 45.2668 11.2631 49.0041 8.69006 53.95V54H8.68006ZM16.0001 62C15.813 62.4427 15.4728 62.8032 15.0417 63.0156C14.6106 63.2281 14.1175 63.2782 13.6525 63.1567C13.1875 63.0353 12.7818 62.7506 12.5095 62.3545C12.2373 61.9584 12.1168 61.4776 12.1701 61C12.9081 58.1684 14.3394 55.5651 16.3349 53.4247C18.3303 51.2844 20.8271 49.6744 23.6001 48.74C23.8567 48.598 24.1414 48.5141 24.4341 48.4944C24.7268 48.4747 25.0202 48.5196 25.2935 48.626C25.5669 48.7323 25.8135 48.8975 26.0159 49.1098C26.2183 49.3221 26.3716 49.5763 26.4648 49.8544C26.558 50.1325 26.5889 50.4277 26.5553 50.7191C26.5216 51.0105 26.4243 51.2909 26.2703 51.5405C26.1162 51.7901 25.9091 52.0028 25.6636 52.1634C25.4182 52.324 25.1405 52.4287 24.8501 52.47C22.6968 53.1937 20.7589 54.4449 19.2131 56.1095C17.6673 57.7741 16.5627 59.7991 16.0001 62Z" fill="white"/>
</g>
<defs>
<clipPath id="clip0_111_2">
<rect width="122.88" height="91.21" fill="white"/>
</clipPath>
</defs>
</svg>
